<svg width="20" height="20" viewBox="0 0 20 20" fill="none" xmlns="http://www.w3.org/2000/svg">
<path d="M7 10C7.55228 10 8 10.4477 8 11C8 11.5523 7.55228 12 7 12H5C4.44772 12 4 11.5523 4 11C4 10.4477 4.44772 10 5 10H7Z" fill="#3498DB"/>
<path fill-rule="evenodd" clip-rule="evenodd" d="M16 0C18.2091 0 20 1.79086 20 4V12C20 14.2091 18.2091 16 16 16H4C1.79086 16 0 14.2091 0 12V4C0 1.79086 1.79086 0 4 0H16ZM16 2H4C2.89543 2 2 2.89543 2 4V12C2 13.1046 2.89543 14 4 14H16C17.1046 14 18 13.1046 18 12V4C18 2.89543 17.1046 2 16 2Z" fill="#3498DB"/>
<path d="M7 18C6.44772 18 6 18.4477 6 19C6 19.5523 6.44772 20 7 20H13C13.5523 20 14 19.5523 14 19C14 18.4477 13.5523 18 13 18H7Z" fill="#3498DB"/>
</svg>
