<svg width="20" height="20" viewBox="0 0 20 20" fill="none" xmlns="http://www.w3.org/2000/svg">
<path fill-rule="evenodd" clip-rule="evenodd" d="M11.0231 0C12.1261 0 13.0231 0.897 13.0231 2V2.598C13.6981 2.878 14.3371 3.253 14.9191 3.71L15.4481 3.404C16.3711 2.871 17.6481 3.216 18.1791 4.136L19.1781 5.865C19.7301 6.82 19.4021 8.045 18.4471 8.597L17.9421 8.889C17.9961 9.257 18.0231 9.629 18.0231 10C18.0231 10.371 17.9961 10.742 17.9421 11.113L18.4471 11.405C19.4021 11.956 19.7301 13.182 19.1781 14.137L18.1791 15.866C17.6461 16.785 16.3711 17.127 15.4481 16.597L14.9191 16.291C14.3371 16.747 13.6981 17.122 13.0231 17.402V18C13.0231 19.103 12.1261 20 11.0231 20H9.02308C7.92008 20 7.02308 19.103 7.02308 18V17.402C6.34808 17.122 5.70908 16.747 5.12708 16.29L4.59808 16.596C3.67708 17.127 2.39908 16.783 1.86808 15.866L0.868076 14.136C0.316076 13.181 0.644076 11.955 1.59908 11.403L2.10408 11.111C2.05008 10.742 2.02308 10.371 2.02308 10C2.02308 9.629 2.05008 9.257 2.10408 8.888L1.59908 8.596C0.644076 8.045 0.316076 6.819 0.868076 5.864L1.86708 4.135C2.39808 3.216 3.67408 2.872 4.59808 3.403L5.12708 3.709C5.70908 3.253 6.34808 2.878 7.02308 2.598V2C7.02308 0.897 7.92008 0 9.02308 0H11.0231ZM11.0231 2H9.02308V3.3C9.02308 3.739 8.73608 4.128 8.31508 4.256C7.43808 4.524 6.61408 5.008 5.93108 5.655C5.61008 5.962 5.12708 6.018 4.74308 5.797L3.59808 5.135L2.60008 6.864L3.72308 7.514C4.11008 7.737 4.30108 8.189 4.19308 8.622C4.08108 9.074 4.02308 9.538 4.02308 10C4.02308 10.461 4.08108 10.925 4.19408 11.378C4.30108 11.811 4.11008 12.263 3.72308 12.486L2.59908 13.137L3.59908 14.866L4.74308 14.204C4.89908 14.114 5.07108 14.07 5.24308 14.07C5.49308 14.07 5.74108 14.163 5.93108 14.345C6.61408 14.992 7.43808 15.475 8.31508 15.744C8.73608 15.872 9.02308 16.261 9.02308 16.7V18H11.0251L11.0231 16.7C11.0231 16.261 11.3101 15.872 11.7311 15.744C12.6081 15.476 13.4321 14.992 14.1151 14.345C14.4361 14.037 14.9201 13.982 15.3031 14.203L16.4481 14.864L17.4461 13.135L16.3231 12.486C15.9361 12.263 15.7451 11.811 15.8521 11.378C15.9651 10.925 16.0231 10.461 16.0231 10C16.0231 9.538 15.9651 9.074 15.8531 8.622C15.7451 8.19 15.9361 7.738 16.3231 7.514L17.4471 6.865L16.4471 5.136L15.3031 5.797C14.9211 6.017 14.4361 5.962 14.1151 5.655C13.4321 5.008 12.6081 4.525 11.7311 4.256C11.3101 4.128 11.0231 3.739 11.0231 3.3V2ZM10.0231 6C12.2291 6 14.0231 7.794 14.0231 10C14.0231 12.206 12.2291 14 10.0231 14C7.81708 14 6.02308 12.206 6.02308 10C6.02308 7.794 7.81708 6 10.0231 6ZM10.0231 8C8.93908 8 8.02308 8.916 8.02308 10C8.02308 11.084 8.93908 12 10.0231 12C11.1071 12 12.0231 11.084 12.0231 10C12.0231 8.916 11.1071 8 10.0231 8Z" fill="#9DA0AF"/>
</svg>
