<svg width="20" height="18" viewBox="0 0 20 18" fill="none" xmlns="http://www.w3.org/2000/svg">
<path fill-rule="evenodd" clip-rule="evenodd" d="M5.75736 0C6.81823 0 7.83564 0.421427 8.58579 1.17157L8.82843 1.41421C9.2035 1.78929 9.71221 2 10.2426 2H16C18.2091 2 20 3.79086 20 6V14C20 16.2091 18.2091 18 16 18H4C1.79086 18 0 16.2091 0 14V4C0 1.79086 1.79086 0 4 0H5.75736ZM5.75736 2H4C2.89543 2 2 2.89543 2 4V14C2 15.1046 2.89543 16 4 16H16C17.1046 16 18 15.1046 18 14V6C18 4.89543 17.1046 4 16 4H10.2426C9.18177 4 8.16436 3.57857 7.41421 2.82843L7.17157 2.58579C6.7965 2.21071 6.28779 2 5.75736 2ZM7 12C7.55228 12 8 12.4477 8 13C8 13.5523 7.55228 14 7 14H5C4.44772 14 4 13.5523 4 13C4 12.4477 4.44772 12 5 12H7Z" fill="#9DA0AF"/>
</svg>
